# MagicaVoxel @ Ephtracy

# group
o 

# material
mtllib wholeWithoutWindow.mtl
usemtl palette

# normals
vn -1 0 0
vn 1 0 0
vn 0 0 1
vn 0 0 -1
vn 0 -1 0
vn 0 1 0

# texcoords
vt 0.939453 0.5
vt 0.970703 0.5
vt 0.974609 0.5
vt 0.990234 0.5

# verts
v -3 0 1
v -3 0 -1
v -3 0.5 1
v -3 0.5 -0.2
v -3 0.5 -0.4
v -3 0.5 -1
v -3 0.7 -0.2
v -3 0.7 -0.3
v -3 0.8 -0.3
v -3 0.8 -0.4
v -3 10 -0.4
v -3 10 -1
v 3 0 1
v 3 0 -1
v 3 0.5 1
v 3 0.5 -0.2
v 3 0.5 -0.4
v 3 0.5 -1
v 3 0.7 -0.2
v 3 0.7 -0.3
v 3 0.8 -0.3
v 3 0.8 -0.4
v 3 10 -0.4
v 3 10 -1
v -3 0 1
v -3 0.5 1
v 3 0 1
v 3 0.5 1
v -3 0.5 -0.2
v -3 0.7 -0.2
v 3 0.5 -0.2
v 3 0.7 -0.2
v -3 0.7 -0.3
v -3 0.8 -0.3
v 3 0.7 -0.3
v 3 0.8 -0.3
v -3 0.8 -0.4
v -3 10 -0.4
v 3 0.8 -0.4
v 3 10 -0.4
v -3 0 -1
v -3 0.5 -1
v -3 10 -1
v -2.3 2.6 -1
v -2.3 5.7 -1
v -2.2 2.5 -1
v -2.2 2.6 -1
v -2.2 5.7 -1
v -2.2 5.8 -1
v -2.1 2.4 -1
v -2.1 2.5 -1
v -2.1 2.7 -1
v -2.1 5.6 -1
v -2.1 5.8 -1
v -2.1 5.9 -1
v -2 2.6 -1
v -2 2.7 -1
v -2 5.6 -1
v -2 5.7 -1
v -1.2 2.6 -1
v -1.2 5.7 -1
v -1.1 2.6 -1
v -1.1 5.7 -1
v -0.3 2.6 -1
v -0.3 2.7 -1
v -0.3 5.6 -1
v -0.3 5.7 -1
v -0.2 2.4 -1
v -0.2 2.5 -1
v -0.2 2.7 -1
v -0.2 5.6 -1
v -0.2 5.8 -1
v -0.2 5.9 -1
v -0.0999999 2.5 -1
v -0.0999999 2.6 -1
v -0.0999999 5.7 -1
v -0.0999999 5.8 -1
v 2.38419e-07 2.6 -1
v 2.38419e-07 5.7 -1
v 3 0 -1
v 3 0.5 -1
v 3 10 -1
v -3 0 1
v 3 0 1
v -3 0 -1
v 3 0 -1
v -3 0.5 1
v 3 0.5 1
v -3 0.5 -0.2
v 3 0.5 -0.2
v -3 0.7 -0.2
v 3 0.7 -0.2
v -3 0.7 -0.3
v 3 0.7 -0.3
v -3 0.8 -0.3
v 3 0.8 -0.3
v -3 0.8 -0.4
v 3 0.8 -0.4
v -3 10 -0.4
v 3 10 -0.4
v -3 10 -1
v 3 10 -1

# faces
f 3/1/1 2/1/1 1/1/1
f 4/1/1 2/1/1 3/1/1
f 5/1/1 2/1/1 4/1/1
f 6/1/1 2/1/1 5/1/1
f 7/4/1 5/4/1 4/4/1
f 8/4/1 5/4/1 7/4/1
f 9/4/1 5/4/1 8/4/1
f 10/2/1 6/2/1 5/2/1
f 10/4/1 5/4/1 9/4/1
f 11/2/1 6/2/1 10/2/1
f 12/2/1 6/2/1 11/2/1
f 13/1/2 14/1/2 15/1/2
f 15/1/2 14/1/2 16/1/2
f 16/1/2 14/1/2 17/1/2
f 17/1/2 14/1/2 18/1/2
f 16/4/2 17/4/2 19/4/2
f 19/4/2 17/4/2 20/4/2
f 20/4/2 17/4/2 21/4/2
f 17/2/2 18/2/2 22/2/2
f 21/4/2 17/4/2 22/4/2
f 22/2/2 18/2/2 23/2/2
f 23/2/2 18/2/2 24/2/2
f 27/1/3 26/1/3 25/1/3
f 28/1/3 26/1/3 27/1/3
f 31/4/3 30/4/3 29/4/3
f 32/4/3 30/4/3 31/4/3
f 35/4/3 34/4/3 33/4/3
f 36/4/3 34/4/3 35/4/3
f 39/2/3 38/2/3 37/2/3
f 40/2/3 38/2/3 39/2/3
f 42/2/4 43/2/4 44/2/4
f 44/2/4 43/2/4 45/2/4
f 42/2/4 44/2/4 46/2/4
f 44/3/4 45/3/4 47/3/4
f 46/2/4 44/2/4 47/2/4
f 45/2/4 43/2/4 48/2/4
f 47/3/4 45/3/4 48/3/4
f 48/2/4 43/2/4 49/2/4
f 42/2/4 46/2/4 50/2/4
f 46/3/4 47/3/4 51/3/4
f 50/2/4 46/2/4 51/2/4
f 47/3/4 48/3/4 51/3/4
f 48/3/4 49/3/4 51/3/4
f 51/3/4 49/3/4 52/3/4
f 52/3/4 49/3/4 53/3/4
f 49/2/4 43/2/4 54/2/4
f 53/3/4 49/3/4 54/3/4
f 54/2/4 43/2/4 55/2/4
f 50/3/4 51/3/4 56/3/4
f 51/3/4 52/3/4 56/3/4
f 52/2/4 53/2/4 57/2/4
f 56/3/4 52/3/4 57/3/4
f 54/3/4 55/3/4 58/3/4
f 57/2/4 53/2/4 58/2/4
f 53/3/4 54/3/4 58/3/4
f 58/3/4 55/3/4 59/3/4
f 50/3/4 56/3/4 60/3/4
f 56/2/4 57/2/4 60/2/4
f 58/2/4 59/2/4 60/2/4
f 57/2/4 58/2/4 60/2/4
f 59/3/4 55/3/4 61/3/4
f 60/2/4 59/2/4 61/2/4
f 50/3/4 60/3/4 62/3/4
f 60/3/4 61/3/4 62/3/4
f 61/3/4 55/3/4 63/3/4
f 62/3/4 61/3/4 63/3/4
f 50/3/4 62/3/4 64/3/4
f 62/2/4 63/2/4 64/2/4
f 64/2/4 63/2/4 65/2/4
f 65/2/4 63/2/4 66/2/4
f 63/3/4 55/3/4 67/3/4
f 66/2/4 63/2/4 67/2/4
f 42/2/4 50/2/4 68/2/4
f 50/3/4 64/3/4 68/3/4
f 64/3/4 65/3/4 68/3/4
f 68/3/4 65/3/4 69/3/4
f 65/2/4 66/2/4 70/2/4
f 69/3/4 65/3/4 70/3/4
f 66/3/4 67/3/4 71/3/4
f 70/2/4 66/2/4 71/2/4
f 67/3/4 55/3/4 72/3/4
f 71/3/4 67/3/4 72/3/4
f 55/2/4 43/2/4 73/2/4
f 72/3/4 55/3/4 73/3/4
f 70/3/4 71/3/4 74/3/4
f 68/2/4 69/2/4 74/2/4
f 71/3/4 72/3/4 74/3/4
f 69/3/4 70/3/4 74/3/4
f 74/3/4 72/3/4 75/3/4
f 75/3/4 72/3/4 76/3/4
f 72/2/4 73/2/4 77/2/4
f 76/3/4 72/3/4 77/3/4
f 75/3/4 76/3/4 78/3/4
f 74/2/4 75/2/4 78/2/4
f 76/2/4 77/2/4 79/2/4
f 78/3/4 76/3/4 79/3/4
f 41/1/4 42/1/4 80/1/4
f 42/2/4 68/2/4 81/2/4
f 80/1/4 42/1/4 81/1/4
f 68/2/4 74/2/4 81/2/4
f 78/2/4 79/2/4 81/2/4
f 74/2/4 78/2/4 81/2/4
f 79/2/4 77/2/4 82/2/4
f 81/2/4 79/2/4 82/2/4
f 73/2/4 43/2/4 82/2/4
f 77/2/4 73/2/4 82/2/4
f 85/1/5 84/1/5 83/1/5
f 86/1/5 84/1/5 85/1/5
f 87/1/6 88/1/6 89/1/6
f 89/1/6 88/1/6 90/1/6
f 91/4/6 92/4/6 93/4/6
f 93/4/6 92/4/6 94/4/6
f 95/4/6 96/4/6 97/4/6
f 97/4/6 96/4/6 98/4/6
f 99/2/6 100/2/6 101/2/6
f 101/2/6 100/2/6 102/2/6
