# MagicaVoxel @ Ephtracy

# group
o 

# material
mtllib Hoover.mtl
usemtl palette

# normals
vn -1 0 0
vn 1 0 0
vn 0 0 1
vn 0 0 -1
vn 0 -1 0
vn 0 1 0

# texcoords
vt 0.943359 0.5
vt 0.947266 0.5
vt 0.951172 0.5
vt 0.955078 0.5
vt 0.970703 0.5
vt 0.974609 0.5
vt 0.978516 0.5
vt 0.982422 0.5
vt 0.986328 0.5

# verts
v -1.5 0 1.5
v -1.5 0 -1.5
v -1.5 0.2 1.5
v -1.5 0.2 -1.5
v -1.4 0.2 1.4
v -1.4 0.2 -1.4
v -1.4 0.4 1.4
v -1.4 0.4 -1.4
v -1.3 0.4 1.3
v -1.3 0.4 -1.3
v -1.3 0.6 1.3
v -1.3 0.6 -1.3
v -1.2 0.6 1.2
v -1.2 0.6 -1.2
v -1.2 1 -0.1
v -1.2 1 -0.2
v -1.2 1 -0.3
v -1.2 1 -0.4
v -1.2 1 -0.5
v -1.2 1 -0.6
v -1.2 1 -0.7
v -1.2 1 -1
v -1.2 1.1 -0.2
v -1.2 1.1 -0.3
v -1.2 1.1 -0.4
v -1.2 1.1 -0.5
v -1.2 1.1 -0.6
v -1.2 1.1 -0.7
v -1.2 1.2 -0.4
v -1.2 1.2 -0.5
v -1.2 1.2 -0.6
v -1.2 1.2 -0.9
v -1.2 1.3 -0.4
v -1.2 1.3 -0.5
v -1.2 1.3 -0.6
v -1.2 1.3 -0.9
v -1.2 1.4 -0.4
v -1.2 1.4 -0.9
v -1.2 1.5 -0.4
v -1.2 1.5 -0.9
v -1.2 1.6 -0.1
v -1.2 1.6 -1
v -1.2 1.9 1.2
v -1.2 1.9 -1.2
v -1.1 1.9 1.1
v -1.1 1.9 -1.1
v -1.1 3 1.1
v -1.1 3 -1.1
v -0.3 3 1.1
v -0.3 3 0.5
v -0.3 3 0.3
v -0.3 3 -0.3
v -0.3 3 -0.5
v -0.3 3 -1.1
v -0.3 3.3 1.5
v -0.3 3.3 1.1
v -0.3 3.3 -1.1
v -0.3 3.3 -1.5
v -0.3 4 1.5
v -0.3 4 0.5
v -0.3 4 0.3
v -0.3 4 -0.3
v -0.3 4 -0.5
v -0.3 4 -1.5
v 1.2 0.2 1.2
v 1.2 0.2 -1.2
v 1.2 0.3 1.2
v 1.2 0.3 -1.2
v 1.3 0.1 1.3
v 1.3 0.1 -1.3
v 1.3 0.2 1.3
v 1.3 0.2 -1.3
v 1.4 0 1.4
v 1.4 0 -1.4
v 1.4 0.1 1.4
v 1.4 0.1 -1.4
v -1.4 0 1.4
v -1.4 0 -1.4
v -1.4 0.1 1.4
v -1.4 0.1 -1.4
v -1.3 0.1 1.3
v -1.3 0.1 -1.3
v -1.3 0.2 1.3
v -1.3 0.2 -1.3
v -1.2 0.2 1.2
v -1.2 0.2 -1.2
v -1.2 0.3 1.2
v -1.2 0.3 -1.2
v 0.4 3 1.1
v 0.4 3 0.5
v 0.4 3 0.3
v 0.4 3 -0.3
v 0.4 3 -0.5
v 0.4 3 -1.1
v 0.4 3.3 1.5
v 0.4 3.3 1.1
v 0.4 3.3 -1.1
v 0.4 3.3 -1.5
v 0.4 3.4 0.3
v 0.4 3.4 -0.3
v 0.4 4 1.5
v 0.4 4 0.5
v 0.4 4 -0.5
v 0.4 4 -1.5
v 1.1 1.9 1.1
v 1.1 1.9 -1.1
v 1.1 3 1.1
v 1.1 3 -1.1
v 1.2 0.6 1.2
v 1.2 0.6 -1.2
v 1.2 1.9 1.2
v 1.2 1.9 -1.2
v 1.3 0.4 1.3
v 1.3 0.4 -1.3
v 1.3 0.6 1.3
v 1.3 0.6 -1.3
v 1.4 0.2 1.4
v 1.4 0.2 -1.4
v 1.4 0.4 1.4
v 1.4 0.4 -1.4
v 1.5 0 1.5
v 1.5 0 -1.5
v 1.5 0.2 1.5
v 1.5 0.2 -1.5
v 1.5 3.4 0.3
v 1.5 3.4 -0.3
v 1.5 4 0.3
v 1.5 4 -0.3
v -1.5 0 1.5
v -1.5 0.2 1.5
v -0.3 3.3 1.5
v -0.3 4 1.5
v 0.4 3.3 1.5
v 0.4 4 1.5
v 1.5 0 1.5
v 1.5 0.2 1.5
v -1.4 0.2 1.4
v -1.4 0.4 1.4
v 1.4 0.2 1.4
v 1.4 0.4 1.4
v -1.3 0.4 1.3
v -1.3 0.6 1.3
v 1.3 0.4 1.3
v 1.3 0.6 1.3
v -1.2 0.6 1.2
v -1.2 1.9 1.2
v 1.2 0.6 1.2
v 1.2 1.9 1.2
v -1.1 1.9 1.1
v -1.1 3 1.1
v -0.3 3 1.1
v -0.3 3.3 1.1
v 0.4 3 1.1
v 0.4 3.3 1.1
v 1.1 1.9 1.1
v 1.1 3 1.1
v -0.3 3 0.3
v -0.3 4 0.3
v 0.4 3 0.3
v 0.4 3.4 0.3
v 1.5 3.4 0.3
v 1.5 4 0.3
v -0.3 3 -0.5
v -0.3 4 -0.5
v 0.4 3 -0.5
v 0.4 4 -0.5
v -1.2 0.2 -1.2
v -1.2 0.3 -1.2
v 1.2 0.2 -1.2
v 1.2 0.3 -1.2
v -1.3 0.1 -1.3
v -1.3 0.2 -1.3
v 1.3 0.1 -1.3
v 1.3 0.2 -1.3
v -1.4 0 -1.4
v -1.4 0.1 -1.4
v 1.4 0 -1.4
v 1.4 0.1 -1.4
v -1.4 0 1.4
v -1.4 0.1 1.4
v 1.4 0 1.4
v 1.4 0.1 1.4
v -1.3 0.1 1.3
v -1.3 0.2 1.3
v 1.3 0.1 1.3
v 1.3 0.2 1.3
v -1.2 0.2 1.2
v -1.2 0.3 1.2
v 1.2 0.2 1.2
v 1.2 0.3 1.2
v -0.3 3 0.5
v -0.3 4 0.5
v 0.4 3 0.5
v 0.4 4 0.5
v -0.3 3 -0.3
v -0.3 4 -0.3
v 0.4 3 -0.3
v 0.4 3.4 -0.3
v 1.5 3.4 -0.3
v 1.5 4 -0.3
v -1.1 1.9 -1.1
v -1.1 3 -1.1
v -0.3 3 -1.1
v -0.3 3.3 -1.1
v 0.4 3 -1.1
v 0.4 3.3 -1.1
v 1.1 1.9 -1.1
v 1.1 3 -1.1
v -1.2 0.6 -1.2
v -1.2 1.9 -1.2
v 1.2 0.6 -1.2
v 1.2 1.9 -1.2
v -1.3 0.4 -1.3
v -1.3 0.6 -1.3
v 1.3 0.4 -1.3
v 1.3 0.6 -1.3
v -1.4 0.2 -1.4
v -1.4 0.4 -1.4
v 1.4 0.2 -1.4
v 1.4 0.4 -1.4
v -1.5 0 -1.5
v -1.5 0.2 -1.5
v -0.3 3.3 -1.5
v -0.3 4 -1.5
v 0.4 3.3 -1.5
v 0.4 4 -1.5
v 1.5 0 -1.5
v 1.5 0.2 -1.5
v -1.5 0 1.5
v 1.5 0 1.5
v -1.4 0 1.4
v 1.4 0 1.4
v -1.4 0 -1.4
v 1.4 0 -1.4
v -1.5 0 -1.5
v 1.5 0 -1.5
v -1.4 0.1 1.4
v 1.4 0.1 1.4
v -1.3 0.1 1.3
v 1.3 0.1 1.3
v -1.3 0.1 -1.3
v 1.3 0.1 -1.3
v -1.4 0.1 -1.4
v 1.4 0.1 -1.4
v -1.3 0.2 1.3
v 1.3 0.2 1.3
v -1.2 0.2 1.2
v 1.2 0.2 1.2
v -1.2 0.2 -1.2
v 1.2 0.2 -1.2
v -1.3 0.2 -1.3
v 1.3 0.2 -1.3
v -1.2 0.3 1.2
v 1.2 0.3 1.2
v -1.2 0.3 -1.2
v 1.2 0.3 -1.2
v -0.3 3.3 1.5
v 0.4 3.3 1.5
v -0.3 3.3 1.1
v 0.4 3.3 1.1
v -0.3 3.3 -1.1
v 0.4 3.3 -1.1
v -0.3 3.3 -1.5
v 0.4 3.3 -1.5
v 0.4 3.4 0.3
v 1.5 3.4 0.3
v 0.4 3.4 -0.3
v 1.5 3.4 -0.3
v -1.5 0.2 1.5
v 1.5 0.2 1.5
v -1.4 0.2 1.4
v 1.4 0.2 1.4
v -1.4 0.2 -1.4
v 1.4 0.2 -1.4
v -1.5 0.2 -1.5
v 1.5 0.2 -1.5
v -1.4 0.4 1.4
v 1.4 0.4 1.4
v -1.3 0.4 1.3
v 1.3 0.4 1.3
v -1.3 0.4 -1.3
v 1.3 0.4 -1.3
v -1.4 0.4 -1.4
v 1.4 0.4 -1.4
v -1.3 0.6 1.3
v 1.3 0.6 1.3
v -1.2 0.6 1.2
v 1.2 0.6 1.2
v -1.2 0.6 -1.2
v 1.2 0.6 -1.2
v -1.3 0.6 -1.3
v 1.3 0.6 -1.3
v -1.2 1.9 1.2
v 1.2 1.9 1.2
v -1.1 1.9 1.1
v 1.1 1.9 1.1
v -1.1 1.9 -1.1
v 1.1 1.9 -1.1
v -1.2 1.9 -1.2
v 1.2 1.9 -1.2
v -1.1 3 1.1
v -0.3 3 1.1
v 0.4 3 1.1
v 1.1 3 1.1
v -0.3 3 0.5
v 0.4 3 0.5
v -0.3 3 0.3
v 0.4 3 0.3
v -0.3 3 -0.3
v 0.4 3 -0.3
v -0.3 3 -0.5
v 0.4 3 -0.5
v -1.1 3 -1.1
v -0.3 3 -1.1
v 0.4 3 -1.1
v 1.1 3 -1.1
v -0.3 4 1.5
v 0.4 4 1.5
v -0.3 4 0.5
v 0.4 4 0.5
v -0.3 4 0.3
v 1.5 4 0.3
v -0.3 4 -0.3
v 1.5 4 -0.3
v -0.3 4 -0.5
v 0.4 4 -0.5
v -0.3 4 -1.5
v 0.4 4 -1.5

# faces
f 3/5/1 2/5/1 1/5/1
f 4/5/1 2/5/1 3/5/1
f 7/5/1 6/5/1 5/5/1
f 8/5/1 6/5/1 7/5/1
f 11/5/1 10/5/1 9/5/1
f 12/5/1 10/5/1 11/5/1
f 15/5/1 14/5/1 13/5/1
f 16/5/1 14/5/1 15/5/1
f 17/5/1 14/5/1 16/5/1
f 18/5/1 14/5/1 17/5/1
f 19/5/1 14/5/1 18/5/1
f 20/5/1 14/5/1 19/5/1
f 21/5/1 14/5/1 20/5/1
f 22/5/1 14/5/1 21/5/1
f 23/6/1 16/6/1 15/6/1
f 23/8/1 17/8/1 16/8/1
f 24/6/1 18/6/1 17/6/1
f 24/8/1 17/8/1 23/8/1
f 25/7/1 19/7/1 18/7/1
f 25/6/1 18/6/1 24/6/1
f 26/6/1 20/6/1 19/6/1
f 26/7/1 19/7/1 25/7/1
f 27/9/1 21/9/1 20/9/1
f 27/6/1 20/6/1 26/6/1
f 28/6/1 22/6/1 21/6/1
f 28/9/1 21/9/1 27/9/1
f 29/6/1 27/6/1 26/6/1
f 29/6/1 24/6/1 23/6/1
f 29/6/1 28/6/1 27/6/1
f 29/6/1 26/6/1 25/6/1
f 29/6/1 25/6/1 24/6/1
f 30/6/1 28/6/1 29/6/1
f 31/6/1 28/6/1 30/6/1
f 32/6/1 22/6/1 28/6/1
f 32/6/1 28/6/1 31/6/1
f 33/6/1 29/6/1 23/6/1
f 33/1/1 30/1/1 29/1/1
f 34/6/1 31/6/1 30/6/1
f 34/1/1 30/1/1 33/1/1
f 35/1/1 32/1/1 31/1/1
f 35/6/1 31/6/1 34/6/1
f 36/6/1 22/6/1 32/6/1
f 36/1/1 32/1/1 35/1/1
f 37/6/1 33/6/1 23/6/1
f 37/6/1 35/6/1 34/6/1
f 37/6/1 36/6/1 35/6/1
f 37/6/1 34/6/1 33/6/1
f 38/6/1 22/6/1 36/6/1
f 38/6/1 36/6/1 37/6/1
f 39/6/1 37/6/1 23/6/1
f 39/1/1 38/1/1 37/1/1
f 40/6/1 22/6/1 38/6/1
f 40/1/1 38/1/1 39/1/1
f 41/5/1 15/5/1 13/5/1
f 41/6/1 39/6/1 23/6/1
f 41/6/1 40/6/1 39/6/1
f 41/6/1 23/6/1 15/6/1
f 42/6/1 22/6/1 40/6/1
f 42/6/1 40/6/1 41/6/1
f 42/5/1 14/5/1 22/5/1
f 43/5/1 41/5/1 13/5/1
f 43/5/1 42/5/1 41/5/1
f 44/5/1 14/5/1 42/5/1
f 44/5/1 42/5/1 43/5/1
f 47/5/1 46/5/1 45/5/1
f 48/5/1 46/5/1 47/5/1
f 56/3/1 50/3/1 49/3/1
f 57/4/1 54/4/1 53/4/1
f 59/3/1 56/3/1 55/3/1
f 60/3/1 50/3/1 56/3/1
f 60/3/1 56/3/1 59/3/1
f 61/2/1 52/2/1 51/2/1
f 62/2/1 52/2/1 61/2/1
f 63/4/1 58/4/1 57/4/1
f 63/4/1 57/4/1 53/4/1
f 64/4/1 58/4/1 63/4/1
f 67/5/1 66/5/1 65/5/1
f 68/5/1 66/5/1 67/5/1
f 71/5/1 70/5/1 69/5/1
f 72/5/1 70/5/1 71/5/1
f 75/5/1 74/5/1 73/5/1
f 76/5/1 74/5/1 75/5/1
f 77/5/2 78/5/2 79/5/2
f 79/5/2 78/5/2 80/5/2
f 81/5/2 82/5/2 83/5/2
f 83/5/2 82/5/2 84/5/2
f 85/5/2 86/5/2 87/5/2
f 87/5/2 86/5/2 88/5/2
f 89/3/2 90/3/2 96/3/2
f 93/4/2 94/4/2 97/4/2
f 91/2/2 92/2/2 99/2/2
f 99/2/2 92/2/2 100/2/2
f 95/3/2 96/3/2 101/3/2
f 96/3/2 90/3/2 102/3/2
f 101/3/2 96/3/2 102/3/2
f 97/4/2 98/4/2 103/4/2
f 93/4/2 97/4/2 103/4/2
f 103/4/2 98/4/2 104/4/2
f 105/5/2 106/5/2 107/5/2
f 107/5/2 106/5/2 108/5/2
f 109/5/2 110/5/2 111/5/2
f 111/5/2 110/5/2 112/5/2
f 113/5/2 114/5/2 115/5/2
f 115/5/2 114/5/2 116/5/2
f 117/5/2 118/5/2 119/5/2
f 119/5/2 118/5/2 120/5/2
f 121/5/2 122/5/2 123/5/2
f 123/5/2 122/5/2 124/5/2
f 125/2/2 126/2/2 127/2/2
f 127/2/2 126/2/2 128/2/2
f 133/3/3 132/3/3 131/3/3
f 134/3/3 132/3/3 133/3/3
f 135/5/3 130/5/3 129/5/3
f 136/5/3 130/5/3 135/5/3
f 139/5/3 138/5/3 137/5/3
f 140/5/3 138/5/3 139/5/3
f 143/5/3 142/5/3 141/5/3
f 144/5/3 142/5/3 143/5/3
f 147/5/3 146/5/3 145/5/3
f 148/5/3 146/5/3 147/5/3
f 151/5/3 150/5/3 149/5/3
f 153/5/3 151/5/3 149/5/3
f 153/3/3 152/3/3 151/3/3
f 154/3/3 152/3/3 153/3/3
f 155/5/3 153/5/3 149/5/3
f 156/5/3 153/5/3 155/5/3
f 159/2/3 158/2/3 157/2/3
f 160/2/3 158/2/3 159/2/3
f 161/2/3 158/2/3 160/2/3
f 162/2/3 158/2/3 161/2/3
f 165/4/3 164/4/3 163/4/3
f 166/4/3 164/4/3 165/4/3
f 169/5/3 168/5/3 167/5/3
f 170/5/3 168/5/3 169/5/3
f 173/5/3 172/5/3 171/5/3
f 174/5/3 172/5/3 173/5/3
f 177/5/3 176/5/3 175/5/3
f 178/5/3 176/5/3 177/5/3
f 179/5/4 180/5/4 181/5/4
f 181/5/4 180/5/4 182/5/4
f 183/5/4 184/5/4 185/5/4
f 185/5/4 184/5/4 186/5/4
f 187/5/4 188/5/4 189/5/4
f 189/5/4 188/5/4 190/5/4
f 191/3/4 192/3/4 193/3/4
f 193/3/4 192/3/4 194/3/4
f 195/2/4 196/2/4 197/2/4
f 197/2/4 196/2/4 198/2/4
f 198/2/4 196/2/4 199/2/4
f 199/2/4 196/2/4 200/2/4
f 201/5/4 202/5/4 203/5/4
f 201/5/4 203/5/4 205/5/4
f 203/4/4 204/4/4 205/4/4
f 205/4/4 204/4/4 206/4/4
f 201/5/4 205/5/4 207/5/4
f 207/5/4 205/5/4 208/5/4
f 209/5/4 210/5/4 211/5/4
f 211/5/4 210/5/4 212/5/4
f 213/5/4 214/5/4 215/5/4
f 215/5/4 214/5/4 216/5/4
f 217/5/4 218/5/4 219/5/4
f 219/5/4 218/5/4 220/5/4
f 223/4/4 224/4/4 225/4/4
f 225/4/4 224/4/4 226/4/4
f 221/5/4 222/5/4 227/5/4
f 227/5/4 222/5/4 228/5/4
f 231/5/5 230/5/5 229/5/5
f 232/5/5 230/5/5 231/5/5
f 233/5/5 231/5/5 229/5/5
f 234/5/5 230/5/5 232/5/5
f 235/5/5 233/5/5 229/5/5
f 235/5/5 234/5/5 233/5/5
f 236/5/5 230/5/5 234/5/5
f 236/5/5 234/5/5 235/5/5
f 239/5/5 238/5/5 237/5/5
f 240/5/5 238/5/5 239/5/5
f 241/5/5 239/5/5 237/5/5
f 242/5/5 238/5/5 240/5/5
f 243/5/5 241/5/5 237/5/5
f 243/5/5 242/5/5 241/5/5
f 244/5/5 238/5/5 242/5/5
f 244/5/5 242/5/5 243/5/5
f 247/5/5 246/5/5 245/5/5
f 248/5/5 246/5/5 247/5/5
f 249/5/5 247/5/5 245/5/5
f 250/5/5 246/5/5 248/5/5
f 251/5/5 249/5/5 245/5/5
f 251/5/5 250/5/5 249/5/5
f 252/5/5 246/5/5 250/5/5
f 252/5/5 250/5/5 251/5/5
f 255/5/5 254/5/5 253/5/5
f 256/5/5 254/5/5 255/5/5
f 259/3/5 258/3/5 257/3/5
f 260/3/5 258/3/5 259/3/5
f 263/4/5 262/4/5 261/4/5
f 264/4/5 262/4/5 263/4/5
f 267/2/5 266/2/5 265/2/5
f 268/2/5 266/2/5 267/2/5
f 269/5/6 270/5/6 271/5/6
f 271/5/6 270/5/6 272/5/6
f 269/5/6 271/5/6 273/5/6
f 272/5/6 270/5/6 274/5/6
f 269/5/6 273/5/6 275/5/6
f 273/5/6 274/5/6 275/5/6
f 274/5/6 270/5/6 276/5/6
f 275/5/6 274/5/6 276/5/6
f 277/5/6 278/5/6 279/5/6
f 279/5/6 278/5/6 280/5/6
f 277/5/6 279/5/6 281/5/6
f 280/5/6 278/5/6 282/5/6
f 277/5/6 281/5/6 283/5/6
f 281/5/6 282/5/6 283/5/6
f 282/5/6 278/5/6 284/5/6
f 283/5/6 282/5/6 284/5/6
f 285/5/6 286/5/6 287/5/6
f 287/5/6 286/5/6 288/5/6
f 285/5/6 287/5/6 289/5/6
f 288/5/6 286/5/6 290/5/6
f 285/5/6 289/5/6 291/5/6
f 289/5/6 290/5/6 291/5/6
f 290/5/6 286/5/6 292/5/6
f 291/5/6 290/5/6 292/5/6
f 293/5/6 294/5/6 295/5/6
f 295/5/6 294/5/6 296/5/6
f 293/5/6 295/5/6 297/5/6
f 296/5/6 294/5/6 298/5/6
f 293/5/6 297/5/6 299/5/6
f 297/5/6 298/5/6 299/5/6
f 298/5/6 294/5/6 300/5/6
f 299/5/6 298/5/6 300/5/6
f 301/5/6 302/5/6 305/5/6
f 303/5/6 304/5/6 306/5/6
f 301/5/6 305/5/6 307/5/6
f 305/5/6 306/5/6 307/5/6
f 306/5/6 304/5/6 308/5/6
f 307/5/6 306/5/6 308/5/6
f 301/5/6 307/5/6 309/5/6
f 308/5/6 304/5/6 310/5/6
f 301/5/6 309/5/6 311/5/6
f 309/5/6 310/5/6 311/5/6
f 310/5/6 304/5/6 312/5/6
f 311/5/6 310/5/6 312/5/6
f 301/5/6 311/5/6 313/5/6
f 313/5/6 311/5/6 314/5/6
f 312/5/6 304/5/6 315/5/6
f 315/5/6 304/5/6 316/5/6
f 317/3/6 318/3/6 319/3/6
f 319/3/6 318/3/6 320/3/6
f 321/2/6 322/2/6 323/2/6
f 323/2/6 322/2/6 324/2/6
f 325/4/6 326/4/6 327/4/6
f 327/4/6 326/4/6 328/4/6
